<?xml version="1.0" encoding="UTF-8" standalone="no"?>
<!-- This is a Stata 16.0 generated SVG file (http://www.stata.com) -->

<svg version="1.1" width="5.50in" height="4.00in" viewBox="0 0 3960 2880" xmlns="http://www.w3.org/2000/svg" xmlns:xlink="http://www.w3.org/1999/xlink">
	<desc>Stata Graph - Graph</desc>
	<rect x="0" y="0" width="3960" height="2880" style="fill:#EAF2F3;stroke:none"/>
	<rect x="0.00" y="0.00" width="3959.88" height="2880.00" style="fill:#F7F7F7"/>
	<rect x="2.88" y="2.88" width="3954.12" height="2874.24" style="fill:none;stroke:#F7F7F7;stroke-width:5.76"/>
	<rect x="390.80" y="100.86" width="3468.22" height="2388.33" style="fill:#FFFFFF"/>
	<rect x="393.68" y="103.74" width="3462.46" height="2382.57" style="fill:none;stroke:#FFFFFF;stroke-width:5.76"/>
	<line x1="390.80" y1="2425.82" x2="3859.02" y2="2425.82" style="stroke:#EAF2F3;stroke-width:8.64"/>
	<line x1="390.80" y1="1860.39" x2="3859.02" y2="1860.39" style="stroke:#EAF2F3;stroke-width:8.64"/>
	<line x1="390.80" y1="1294.96" x2="3859.02" y2="1294.96" style="stroke:#EAF2F3;stroke-width:8.64"/>
	<line x1="390.80" y1="729.53" x2="3859.02" y2="729.53" style="stroke:#EAF2F3;stroke-width:8.64"/>
	<line x1="390.80" y1="164.22" x2="3859.02" y2="164.22" style="stroke:#EAF2F3;stroke-width:8.64"/>
	<path d=" M788.29 2307.64 L798.31 2303.80 L808.34 2300.09 L818.36 2296.38 L828.51 2292.54 L838.53 2288.70 L848.55 2284.99 L858.70 2281.16 L868.73 2277.32 L878.75 2273.48 L888.77 2269.65 L898.92 2265.81 L908.94 2261.85 L918.97 2258.01 L928.99 2254.05 L939.14 2250.22 L949.16 2246.26 L959.19 2242.30 L969.33 2238.46 L979.36 2234.50 L989.38 2230.54 L999.40 2226.46 L1009.55 2222.50 L1019.58 2218.54 L1029.60 2214.45 L1039.75 2210.49 L1049.77 2206.41 L1059.80 2202.32 L1069.82 2198.36 L1079.97 2194.28 L1089.99 2190.20 L1100.01 2186.11 L1110.16 2181.90 L1120.18 2177.82 L1130.21 2173.74 L1140.23 2169.53 L1150.38 2165.32 L1160.40 2161.24 L1170.43 2157.03 L1180.45 2152.82 L1190.60 2148.61 L1200.62 2144.41 L1210.65 2140.20 L1220.79 2135.87 L1230.82 2131.66 L1240.84 2127.33 L1250.87 2123.12 L1261.01 2118.79 L1271.04 2114.46 L1281.06 2110.13 L1291.21 2105.80 L1301.23 2101.46 L1311.26 2097.13 L1321.28 2092.68 L1331.43 2088.35 L1341.45 2083.89 L1351.47 2079.44 L1361.50 2075.10 L1371.64 2070.65 L1381.67 2066.19 L1391.69 2061.74 L1401.84 2057.16 L1411.86 2052.71 L1421.89 2048.25 L1431.91 2043.67 L1442.06 2039.09 L1452.08 2034.51 L1462.11 2030.06 L1472.25 2025.48 L1482.28 2020.78 L1492.30 2016.20 L1502.33 2011.62 L1512.47 2006.92 L1522.50 2002.34 L1532.52 1997.63 L1542.67 1992.93 L1552.69 1988.35 L1562.71 1983.65 L1572.74 1978.82 L1582.89 1974.12 L1592.91 1969.42 L1602.93 1964.59 L1612.96 1959.89 L1623.11 1955.06 L1633.13 1950.24 L1643.15 1945.41 L1653.30 1940.58 L1663.32 1935.76 L1673.35 1930.93 L1683.37 1925.98 L1693.52 1921.16 L1703.54 1916.20 L1713.57 1911.25 L1723.71 1906.30 L1733.74 1901.35 L1743.76 1896.40 L1753.79 1891.45 L1763.93 1886.50 L1773.96 1881.43 L1783.98 1876.48 L1794.00 1871.41 L1804.15 1866.33 L1814.17 1861.26 L1824.20 1856.18 L1834.35 1851.11 L1844.37 1845.91 L1854.39 1840.84 L1864.42 1835.64 L1874.57 1830.57 L1884.59 1825.37 L1894.61 1820.17 L1904.76 1814.97 L1914.78 1809.78 L1924.81 1804.46 L1934.83 1799.26 L1944.98 1793.94 L1955.00 1788.61 L1965.03 1783.42 L1975.05 1778.10 L1985.20 1772.65 L1995.22 1767.33 L2005.24 1762.01 L2015.39 1756.56 L2025.42 1751.24 L2035.44 1745.80 L2045.46 1740.35 L2055.61 1734.91 L2065.64 1729.46 L2075.66 1724.02 L2085.81 1718.45 L2095.83 1713.00 L2105.85 1707.43 L2115.88 1701.86 L2126.03 1696.29 L2136.05 1690.73 L2146.07 1685.16 L2156.22 1679.46 L2166.24 1673.89 L2176.27 1668.20 L2186.29 1662.63 L2196.44 1656.94 L2206.46 1651.25 L2216.49 1645.43 L2226.51 1639.74 L2236.66 1634.05 L2246.68 1628.23 L2256.70 1622.41 L2266.85 1616.60 L2276.88 1610.78 L2286.90 1604.96 L2296.92 1599.15 L2307.07 1593.21 L2317.09 1587.39 L2327.12 1581.45 L2337.27 1575.51 L2347.29 1569.57 L2357.31 1563.63 L2367.34 1557.69 L2377.49 1551.63 L2387.51 1545.69 L2397.53 1539.62 L2407.56 1533.56 L2417.70 1527.49 L2427.73 1521.43 L2437.75 1515.24 L2447.90 1509.18 L2457.92 1502.99 L2467.95 1496.93 L2477.97 1490.74 L2488.12 1484.55 L2498.14 1478.24 L2508.16 1472.05 L2518.31 1465.74 L2528.34 1459.55 L2538.36 1453.24 L2548.38 1446.93 L2558.53 1440.62 L2568.55 1434.31 L2578.58 1427.87 L2588.73 1421.44 L2598.75 1415.13 L2608.77 1408.69 L2618.80 1402.26 L2628.95 1395.82 L2638.97 1389.26 L2648.99 1382.83 L2659.02 1376.27 L2669.16 1369.71 L2679.19 1363.15 L2689.21 1356.59 L2699.36 1350.03 L2709.38 1343.35 L2719.41 1336.67 L2729.43 1330.11 L2739.58 1323.42 L2749.60 1316.74 L2759.63 1309.93 L2769.77 1303.25 L2779.80 1296.45 L2789.82 1289.64 L2799.84 1282.83 L2809.99 1276.03 L2820.01 1269.22 L2830.04 1262.41 L2840.06 1255.48 L2850.21 1248.55 L2860.23 1241.62 L2870.26 1234.69 L2880.41 1227.76 L2890.43 1220.71 L2900.45 1213.78 L2910.48 1206.72 L2920.62 1199.67 L2930.65 1192.62 L2940.67 1185.56 L2950.82 1178.38 L2960.84 1171.21 L2970.87 1164.15 L2980.89 1156.97 L2991.04 1149.67 L3001.06 1142.50 L3011.09 1135.32 L3021.23 1128.02 L3031.26 1120.72 L3041.28 1113.41 L3051.30 1106.11 L3061.45 1098.69 L3071.47 1091.39 L3081.50 1083.96 L3091.52 1076.53 L3101.67 1069.11 L3111.69 1061.68 L3121.72 1054.14 L3131.86 1046.71 L3141.89 1039.16 L3151.91 1031.61 L3161.94 1023.94 L3172.08 1016.39 L3182.11 1008.84 L3192.13 1001.17 L3202.28 993.50 L3212.30 985.82 L3222.33 978.03 L3232.35 970.35 L3242.50 962.56 L3252.52 954.76 L3262.55 946.96 L3272.57 939.17 L3282.72 931.37 L3292.74 923.45 L3302.76 915.53 L3312.91 907.61 L3322.93 899.69 L3332.96 891.65 L3342.98 883.73 L3353.13 875.68 L3363.15 867.64 L3373.18 859.59 L3383.32 851.55 L3393.35 843.38 L3403.37 835.21 L3413.40 827.05 L3423.54 818.88 L3433.57 810.71 L3443.59 802.42 L3453.74 794.13 L3463.76 785.84 L3473.79 777.55 L3483.81 769.25 L3493.96 760.84 L3503.98 752.55 L3514.01 744.13 L3524.03 735.59 L3534.18 727.18 L3544.20 718.64 L3554.22 710.22 L3564.37 701.68 L3574.39 693.02 L3584.42 684.48 L3594.44 675.82 L3604.59 667.28 L3614.61 658.62 L3624.64 649.83 L3634.78 641.17 L3644.81 632.38 L3654.83 623.60 L3664.86 614.81 L3675.00 606.02 L3685.03 597.11 L3695.05 588.33 L3705.07 579.42 L3715.22 570.51 L3725.25 561.47 L3735.27 552.56 L3745.42 543.53 L3755.44 534.49 L3765.47 525.34 L3775.49 516.30 L3785.64 507.14 L3795.66 497.99" stroke-linejoin="round" style="fill:none;stroke:#1A476F;stroke-width:8.64"/>
	<line x1="390.80" y1="2489.19" x2="390.80" y2="100.86" style="stroke:#000000;stroke-width:5.76"/>
	<line x1="390.80" y1="2425.82" x2="350.83" y2="2425.82" style="stroke:#000000;stroke-width:5.76"/>
	<text x="300.72" y="2425.82" style="font-family:'Helvetica';font-size:99.99px;fill:#000000" transform="rotate(-90 300.72,2425.82)" text-anchor="middle">0</text>
	<line x1="390.80" y1="1860.39" x2="350.83" y2="1860.39" style="stroke:#000000;stroke-width:5.76"/>
	<text x="300.72" y="1860.39" style="font-family:'Helvetica';font-size:99.99px;fill:#000000" transform="rotate(-90 300.72,1860.39)" text-anchor="middle">5000</text>
	<line x1="390.80" y1="1294.96" x2="350.83" y2="1294.96" style="stroke:#000000;stroke-width:5.76"/>
	<text x="300.72" y="1294.96" style="font-family:'Helvetica';font-size:99.99px;fill:#000000" transform="rotate(-90 300.72,1294.96)" text-anchor="middle">10000</text>
	<line x1="390.80" y1="729.53" x2="350.83" y2="729.53" style="stroke:#000000;stroke-width:5.76"/>
	<text x="300.72" y="729.53" style="font-family:'Helvetica';font-size:99.99px;fill:#000000" transform="rotate(-90 300.72,729.53)" text-anchor="middle">15000</text>
	<line x1="390.80" y1="164.22" x2="350.83" y2="164.22" style="stroke:#000000;stroke-width:5.76"/>
	<text x="300.72" y="164.22" style="font-family:'Helvetica';font-size:99.99px;fill:#000000" transform="rotate(-90 300.72,164.22)" text-anchor="middle">20000</text>
	<text x="190.71" y="1294.96" style="font-family:'Helvetica';font-size:99.99px;fill:#000000" transform="rotate(-90 190.71,1294.96)" text-anchor="middle">y</text>
	<line x1="390.80" y1="2489.19" x2="3859.02" y2="2489.19" style="stroke:#000000;stroke-width:5.76"/>
	<line x1="454.16" y1="2489.19" x2="454.16" y2="2529.16" style="stroke:#000000;stroke-width:5.76"/>
	<text x="454.16" y="2619.14" style="font-family:'Helvetica';font-size:99.99px;fill:#000000" text-anchor="middle">0</text>
	<line x1="1122.41" y1="2489.19" x2="1122.41" y2="2529.16" style="stroke:#000000;stroke-width:5.76"/>
	<text x="1122.41" y="2619.14" style="font-family:'Helvetica';font-size:99.99px;fill:#000000" text-anchor="middle">2000</text>
	<line x1="1790.79" y1="2489.19" x2="1790.79" y2="2529.16" style="stroke:#000000;stroke-width:5.76"/>
	<text x="1790.79" y="2619.14" style="font-family:'Helvetica';font-size:99.99px;fill:#000000" text-anchor="middle">4000</text>
	<line x1="2459.04" y1="2489.19" x2="2459.04" y2="2529.16" style="stroke:#000000;stroke-width:5.76"/>
	<text x="2459.04" y="2619.14" style="font-family:'Helvetica';font-size:99.99px;fill:#000000" text-anchor="middle">6000</text>
	<line x1="3127.41" y1="2489.19" x2="3127.41" y2="2529.16" style="stroke:#000000;stroke-width:5.76"/>
	<text x="3127.41" y="2619.14" style="font-family:'Helvetica';font-size:99.99px;fill:#000000" text-anchor="middle">8000</text>
	<line x1="3795.66" y1="2489.19" x2="3795.66" y2="2529.16" style="stroke:#000000;stroke-width:5.76"/>
	<text x="3795.66" y="2619.14" style="font-family:'Helvetica';font-size:99.99px;fill:#000000" text-anchor="middle">10000</text>
	<text x="2124.91" y="2729.16" style="font-family:'Helvetica';font-size:99.99px;fill:#000000" text-anchor="middle">x</text>
</svg>
