<?xml version="1.0" encoding="UTF-8" standalone="no"?>
<!-- This is a Stata 16.0 generated SVG file (http://www.stata.com) -->

<svg version="1.1" width="5.50in" height="4.00in" viewBox="0 0 3960 2880" xmlns="http://www.w3.org/2000/svg" xmlns:xlink="http://www.w3.org/1999/xlink">
	<desc>Stata Graph - Graph</desc>
	<rect x="0" y="0" width="3960" height="2880" style="fill:#EAF2F3;stroke:none"/>
	<rect x="0.00" y="0.00" width="3959.88" height="2880.00" style="fill:#F7F7F7"/>
	<rect x="2.88" y="2.88" width="3954.12" height="2874.24" style="fill:none;stroke:#F7F7F7;stroke-width:5.76"/>
	<rect x="390.80" y="100.86" width="3468.22" height="2388.33" style="fill:#FFFFFF"/>
	<rect x="393.68" y="103.74" width="3462.46" height="2382.57" style="fill:none;stroke:#FFFFFF;stroke-width:5.76"/>
	<line x1="390.80" y1="2425.82" x2="3859.02" y2="2425.82" style="stroke:#EAF2F3;stroke-width:8.64"/>
	<line x1="390.80" y1="1671.91" x2="3859.02" y2="1671.91" style="stroke:#EAF2F3;stroke-width:8.64"/>
	<line x1="390.80" y1="918.01" x2="3859.02" y2="918.01" style="stroke:#EAF2F3;stroke-width:8.64"/>
	<path d=" M454.04 2425.95 L465.30 2366.79 L476.44 2336.23 L487.57 2311.47 L498.84 2289.94 L509.97 2270.51 L521.11 2252.57 L532.25 2235.74 L543.51 2219.90 L554.65 2204.80 L565.78 2190.32 L577.05 2176.46 L588.18 2163.09 L599.32 2150.22 L610.58 2137.72 L621.72 2125.47 L632.86 2113.59 L644.12 2102.08 L655.26 2090.82 L666.39 2079.68 L677.65 2068.92 L688.79 2058.27 L699.93 2047.88 L711.07 2037.73 L722.33 2027.58 L733.47 2017.81 L744.60 2008.03 L755.87 1998.50 L767.00 1989.10 L778.14 1979.69 L789.40 1970.53 L800.54 1961.50 L811.68 1952.59 L822.94 1943.80 L834.08 1935.02 L845.21 1926.48 L856.35 1917.94 L867.61 1909.52 L878.75 1901.23 L889.89 1892.94 L901.15 1884.77 L912.28 1876.73 L923.42 1868.68 L934.68 1860.76 L945.82 1852.97 L956.96 1845.17 L968.22 1837.50 L979.36 1829.82 L990.50 1822.28 L1001.63 1814.73 L1012.89 1807.30 L1024.03 1799.88 L1035.17 1792.57 L1046.43 1785.27 L1057.57 1778.10 L1068.70 1770.92 L1079.97 1763.74 L1091.10 1756.69 L1102.24 1749.63 L1113.50 1742.70 L1124.64 1735.77 L1135.78 1728.84 L1147.04 1722.04 L1158.18 1715.23 L1169.31 1708.55 L1180.45 1701.86 L1191.71 1695.18 L1202.85 1688.50 L1213.99 1681.94 L1225.25 1675.38 L1236.39 1668.82 L1247.52 1662.39 L1258.79 1655.95 L1269.92 1649.52 L1281.06 1643.20 L1292.32 1636.89 L1303.46 1630.58 L1314.60 1624.27 L1325.73 1618.08 L1336.99 1611.89 L1348.13 1605.71 L1359.27 1599.64 L1370.53 1593.45 L1381.67 1587.39 L1392.81 1581.33 L1404.07 1575.39 L1415.20 1569.32 L1426.34 1563.38 L1437.60 1557.44 L1448.74 1551.50 L1459.88 1545.69 L1471.14 1539.87 L1482.28 1533.93 L1493.41 1528.24 L1504.55 1522.42 L1515.81 1516.60 L1526.95 1510.91 L1538.09 1505.22 L1549.35 1499.53 L1560.49 1493.83 L1571.63 1488.26 L1582.89 1482.57 L1594.02 1477.00 L1605.16 1471.43 L1616.42 1465.86 L1627.56 1460.42 L1638.70 1454.85 L1649.84 1449.41 L1661.10 1443.96 L1672.23 1438.51 L1683.37 1433.07 L1694.63 1427.62 L1705.77 1422.30 L1716.91 1416.86 L1728.17 1411.54 L1739.31 1406.22 L1750.44 1400.89 L1761.70 1395.57 L1772.84 1390.37 L1783.98 1385.05 L1795.24 1379.86 L1806.38 1374.66 L1817.52 1369.46 L1828.65 1364.26 L1839.91 1359.06 L1851.05 1353.87 L1862.19 1348.79 L1873.45 1343.60 L1884.59 1338.52 L1895.73 1333.45 L1906.99 1328.37 L1918.13 1323.30 L1929.26 1318.23 L1940.52 1313.28 L1951.66 1308.20 L1962.80 1303.25 L1973.94 1298.30 L1985.20 1293.23 L1996.34 1288.28 L2007.47 1283.45 L2018.73 1278.50 L2029.87 1273.55 L2041.01 1268.60 L2052.27 1263.77 L2063.41 1258.95 L2074.55 1254.00 L2085.81 1249.17 L2096.94 1244.35 L2108.08 1239.52 L2119.22 1234.82 L2130.48 1229.99 L2141.62 1225.16 L2152.76 1220.46 L2164.02 1215.63 L2175.15 1210.93 L2186.29 1206.23 L2197.55 1201.53 L2208.69 1196.82 L2219.83 1192.12 L2231.09 1187.42 L2242.23 1182.72 L2253.36 1178.14 L2264.63 1173.43 L2275.76 1168.86 L2286.90 1164.15 L2298.04 1159.57 L2309.30 1154.99 L2320.44 1150.42 L2331.57 1145.84 L2342.84 1141.26 L2353.97 1136.68 L2365.11 1132.10 L2376.37 1127.65 L2387.51 1123.07 L2398.65 1118.61 L2409.91 1114.03 L2421.05 1109.58 L2432.18 1105.12 L2443.32 1100.67 L2454.58 1096.21 L2465.72 1091.76 L2476.86 1087.30 L2488.12 1082.85 L2499.26 1078.39 L2510.39 1074.06 L2521.65 1069.60 L2532.79 1065.15 L2543.93 1060.82 L2555.19 1056.49 L2566.33 1052.03 L2577.47 1047.70 L2588.73 1043.37 L2599.86 1039.04 L2611.00 1034.71 L2622.14 1030.37 L2633.40 1026.04 L2644.54 1021.84 L2655.68 1017.50 L2666.94 1013.17 L2678.07 1008.97 L2689.21 1004.63 L2700.47 1000.43 L2711.61 996.09 L2722.75 991.89 L2734.01 987.68 L2745.15 983.47 L2756.28 979.26 L2767.42 975.06 L2778.68 970.85 L2789.82 966.64 L2800.96 962.43 L2812.22 958.23 L2823.36 954.14 L2834.49 949.93 L2845.76 945.73 L2856.89 941.64 L2868.03 937.44 L2879.29 933.35 L2890.43 929.27 L2901.57 925.06 L2912.83 920.98 L2923.97 916.89 L2935.10 912.81 L2946.24 908.72 L2957.50 904.64 L2968.64 900.56 L2979.78 896.47 L2991.04 892.51 L3002.18 888.43 L3013.31 884.35 L3024.57 880.39 L3035.71 876.30 L3046.85 872.34 L3058.11 868.26 L3069.25 864.30 L3080.39 860.21 L3091.52 856.25 L3102.78 852.29 L3113.92 848.33 L3125.06 844.37 L3136.32 840.41 L3147.46 836.45 L3158.59 832.49 L3169.86 828.53 L3180.99 824.57 L3192.13 820.61 L3203.39 816.65 L3214.53 812.82 L3225.67 808.86 L3236.80 804.90 L3248.07 801.06 L3259.20 797.10 L3270.34 793.26 L3281.60 789.43 L3292.74 785.47 L3303.88 781.63 L3315.14 777.79 L3326.28 773.83 L3337.41 770.00 L3348.68 766.16 L3359.81 762.32 L3370.95 758.49 L3382.21 754.65 L3393.35 750.81 L3404.49 746.98 L3415.62 743.27 L3426.89 739.43 L3438.02 735.59 L3449.16 731.88 L3460.42 728.04 L3471.56 724.21 L3482.70 720.50 L3493.96 716.66 L3505.09 712.95 L3516.23 709.11 L3527.49 705.40 L3538.63 701.68 L3549.77 697.97 L3560.91 694.14 L3572.17 690.42 L3583.30 686.71 L3594.44 683.00 L3605.70 679.28 L3616.84 675.57 L3627.98 671.86 L3639.24 668.15 L3650.38 664.43 L3661.51 660.72 L3672.78 657.01 L3683.91 653.42 L3695.05 649.71 L3706.31 646.00 L3717.45 642.41 L3728.59 638.69 L3739.72 635.10 L3750.99 631.39 L3762.12 627.80 L3773.26 624.09 L3784.52 620.50 L3795.66 616.79" stroke-linejoin="round" style="fill:none;stroke:#1A476F;stroke-width:8.64"/>
	<line x1="390.80" y1="2489.19" x2="390.80" y2="100.86" style="stroke:#000000;stroke-width:5.76"/>
	<line x1="390.80" y1="2425.82" x2="350.83" y2="2425.82" style="stroke:#000000;stroke-width:5.76"/>
	<text x="300.72" y="2425.82" style="font-family:'Helvetica';font-size:99.99px;fill:#000000" transform="rotate(-90 300.72,2425.82)" text-anchor="middle">0</text>
	<line x1="390.80" y1="1671.91" x2="350.83" y2="1671.91" style="stroke:#000000;stroke-width:5.76"/>
	<text x="300.72" y="1671.91" style="font-family:'Helvetica';font-size:99.99px;fill:#000000" transform="rotate(-90 300.72,1671.91)" text-anchor="middle">500</text>
	<line x1="390.80" y1="918.01" x2="350.83" y2="918.01" style="stroke:#000000;stroke-width:5.76"/>
	<text x="300.72" y="918.01" style="font-family:'Helvetica';font-size:99.99px;fill:#000000" transform="rotate(-90 300.72,918.01)" text-anchor="middle">1000</text>
	<line x1="390.80" y1="164.22" x2="350.83" y2="164.22" style="stroke:#000000;stroke-width:5.76"/>
	<text x="300.72" y="164.22" style="font-family:'Helvetica';font-size:99.99px;fill:#000000" transform="rotate(-90 300.72,164.22)" text-anchor="middle">1500</text>
	<text x="190.71" y="1294.96" style="font-family:'Helvetica';font-size:99.99px;fill:#000000" transform="rotate(-90 190.71,1294.96)" text-anchor="middle">y</text>
	<line x1="390.80" y1="2489.19" x2="3859.02" y2="2489.19" style="stroke:#000000;stroke-width:5.76"/>
	<line x1="454.16" y1="2489.19" x2="454.16" y2="2529.16" style="stroke:#000000;stroke-width:5.76"/>
	<text x="454.16" y="2619.14" style="font-family:'Helvetica';font-size:99.99px;fill:#000000" text-anchor="middle">0</text>
	<line x1="1568.04" y1="2489.19" x2="1568.04" y2="2529.16" style="stroke:#000000;stroke-width:5.76"/>
	<text x="1568.04" y="2619.14" style="font-family:'Helvetica';font-size:99.99px;fill:#000000" text-anchor="middle">500</text>
	<line x1="2681.91" y1="2489.19" x2="2681.91" y2="2529.16" style="stroke:#000000;stroke-width:5.76"/>
	<text x="2681.91" y="2619.14" style="font-family:'Helvetica';font-size:99.99px;fill:#000000" text-anchor="middle">1000</text>
	<line x1="3795.66" y1="2489.19" x2="3795.66" y2="2529.16" style="stroke:#000000;stroke-width:5.76"/>
	<text x="3795.66" y="2619.14" style="font-family:'Helvetica';font-size:99.99px;fill:#000000" text-anchor="middle">1500</text>
	<text x="2124.91" y="2729.16" style="font-family:'Helvetica';font-size:99.99px;fill:#000000" text-anchor="middle">x</text>
</svg>
